PathFileType	4	(X/Y/Z)	Patient4_TMGait_0pt7_01_left_29.trc.trc
DataRate	CameraRate	NumFrames	NumMarkers	Units	OrigDataRate	OrigDataStartFrame	OrigNumFrames
82.840236686391	82.840236686391	5	33	mm	82.840236686391	89	       141
Frame#	Time	Sacral			L.Shoulder			Chest			R.Shoulder			Neck			R.ASIS			L.ASIS			R.Thigh.Superior			R.Thigh.Lateral			R.Thigh.Inferior			R.Patella			L.Thigh.Superior			L.Thigh.Lateral			L.Thigh.Inferior			L.Patella			L.Shank.Superior			L.Shank.Lateral			L.Shank.Inferior			R.Shank.Superior			R.Shank.Lateral			R.Shank.Inferior			R.Heel			R.Midfoot.Superior			R.Midfoot.Lateral			R.Toe			L.Heel			L.Midfoot.Lateral			L.Midfoot.Superior			L.Toe			L.Elbow			L.Wrist			R.Elbow			R.Wrist			
		X1	Y1	Z1	X2	Y2	Z2	X3	Y3	Z3	X4	Y4	Z4	X5	Y5	Z5	X6	Y6	Z6	X7	Y7	Z7	X8	Y8	Z8	X9	Y9	Z9	X10	Y10	Z10	X11	Y11	Z11	X12	Y12	Z12	X13	Y13	Z13	X14	Y14	Z14	X15	Y15	Z15	X16	Y16	Z16	X17	Y17	Z17	X18	Y18	Z18	X19	Y19	Z19	X20	Y20	Z20	X21	Y21	Z21	X22	Y22	Z22	X23	Y23	Z23	X24	Y24	Z24	X25	Y25	Z25	X26	Y26	Z26	X27	Y27	Z27	X28	Y28	Z28	X29	Y29	Z29	X30	Y30	Z30	X31	Y31	Z31	X32	Y32	Z32	X33	Y33	Z33	

89	34.482285714286	786.965659268749	1005.576255631147	511.638825828583	955.736596445511	1418.659245863132	296.846357992956	1053.885682556939	1367.401031499674	468.392386679684	960.333935361293	1457.158216595688	630.025688854382	950.886157946421	1494.351835662397	445.756564095200	1010.279482519487	949.312497255123	636.027236178704	1002.683288069670	960.106357092282	361.824495801159	1062.125619383729	748.916532477113	610.955747530634	981.109240919342	634.978922092093	664.625293878563	1064.966654031439	587.337249577619	587.827976179899	1069.453018579113	499.226533336557	590.551064696527	1038.792249861595	745.600972764709	378.051349046905	945.912227461412	635.351545760420	309.406282941405	1031.981774129660	546.507533248139	360.553626342702	1022.681389710885	462.872586887590	354.945594337454	955.135296076586	406.366487848799	351.993979205436	813.770293705293	357.320508742305	313.387877141786	810.300666582403	226.455769224532	366.398829238193	1045.644175004557	410.242702960040	597.085883026120	977.139836276721	304.555788821259	658.326935090740	1023.800851819091	210.909465694504	596.136741284353	896.291330290826	43.082780945089	569.835352075420	1068.301756286742	98.941377738408	601.221601329603	981.238689617327	37.347882404387	641.854265105246	1188.905281394750	46.036161154241	626.056010029289	624.427275734963	152.499466214157	413.478568777276	680.910799778366	96.053147733246	341.470866277779	785.230434511498	112.624643466997	356.484214335822	868.169076831146	33.983192048054	350.079382222850	938.842072376977	1065.996542076195	191.502049517876	1169.467817137951	950.142310803625	220.205265593914	855.524995683462	1139.784785458226	778.752888164265	900.158308553869	880.368198614902	788.279023726421	
90	34.494357142857	786.207060344371	1005.787959045360	514.334576477820	954.345172321944	1418.834503382168	299.181304556565	1053.265680232626	1367.534774194937	470.308926066568	960.428410411624	1457.139001603607	632.326826172775	950.050349133488	1494.440918528615	448.207683262502	1009.711601772162	949.483872630150	638.567015352689	1002.038510569323	959.921710070554	364.330304025090	1059.612148559359	748.057763882468	613.195573241392	977.394809319942	634.813116492646	666.620248796556	1060.315707668451	586.489175017473	589.351797476577	1063.545186340209	498.477438161558	591.688048150608	1043.446293396331	747.686959406630	380.586484999705	955.501343601262	635.460680541866	309.873204498697	1043.425693243944	548.241430083019	361.961625423484	1035.382653103339	463.681728044823	355.639770730052	966.278046201315	407.228152466621	351.896793001905	823.888137135369	362.901804780982	311.481113511230	815.558696490219	232.099756546238	363.677606846902	1039.483587324333	409.577050761332	598.084209750493	970.590558454634	304.080271035168	659.192230380907	1016.403135448746	210.424263926098	596.393417026181	887.741944919524	43.012935349259	569.859726408685	1059.899779571751	98.719872463868	601.148001039027	972.698150345752	37.252176221622	641.893033720056	1180.489497965578	45.495877615362	625.984500675929	627.475184574018	169.400408394419	408.459013835031	680.193551052461	107.367811036103	338.086123549529	785.090876259419	116.071418916853	353.788185175064	860.237190905652	32.452150038676	350.247958229027	931.267585940692	1065.849527246576	195.547839615118	1155.289336654886	936.340077306982	223.541386746139	863.238728225935	1136.994826482880	782.350490704467	924.521114717263	880.970649943994	787.429608799244	
91	34.506428571429	785.296134295353	1005.674351547414	516.832331248609	952.778154528359	1418.722187471324	301.430854261742	1052.482978531717	1367.425596137577	472.158477834326	960.314542448623	1456.848625702429	634.573685930203	949.076216457720	1494.289997675089	450.589714573727	1009.124456113558	949.412904150565	640.949459597006	1001.305213413484	959.544295548250	366.669675689074	1057.386364302852	747.190581220526	614.992919525392	974.265754135435	634.591467649999	668.513762969611	1056.133936242238	585.613082352410	590.687333148521	1058.186156373217	497.647655793505	592.788506909631	1048.054924006808	749.894093690431	383.378102862442	965.290878785895	635.751179740327	310.715167668387	1054.790870201676	550.316058632644	364.273782508621	1048.150721678770	464.846055350139	357.386955171776	977.687195905382	408.375183549997	352.567770328155	834.661860784326	368.577094907515	309.823637786823	821.526446104433	238.035697296741	361.306999295476	1033.744682392493	408.793919326174	599.028277152435	964.398482487497	303.560653813666	660.065221383605	1009.192151136889	209.853788012261	596.639873552092	879.196132832921	42.944589992961	569.930135959765	1051.480603883805	98.482268650115	601.090006160349	964.164920823699	37.154920035735	641.965793897944	1172.078774406914	44.981757895668	625.953002830165	631.969741624970	186.641416235873	403.186533081213	680.774306651042	119.515988709212	334.385069587292	785.684567445243	120.183232833191	351.223464552263	852.551245781956	30.663574813079	350.235418409967	924.126437042056	1065.399337288303	199.710898938860	1140.250066602184	921.928937806646	226.653703625726	871.048781287618	1134.182208795022	785.924249361565	949.578024118826	883.017255977473	786.265948973097	
92	34.518500000000	784.243298100247	1005.278840923463	519.138634523428	951.045058661753	1418.381818974570	303.585613584893	1051.543506446708	1367.117498998806	473.926145426693	960.003143988629	1456.327168775118	636.760307522045	947.997483166228	1493.949832819639	452.891255192621	1008.521180127177	949.148710657388	643.133497593156	1000.431036308865	959.023278653871	368.807682304554	1055.434813092621	746.331511006445	616.423418795488	971.611391648929	634.317341841186	670.269381700535	1052.388251505984	584.720536500828	591.871087319983	1053.341547723685	496.745447295716	593.826029048511	1052.479596196026	752.269111336966	386.460630200701	975.135326874535	636.292302063580	312.014464649693	1065.937943470662	552.788025253009	367.531897030817	1060.862969783353	466.407545942290	360.179921264443	989.216175487731	409.858738793608	354.051365116653	845.901944192646	374.322030337685	308.589557907398	828.129337424611	244.197098191238	359.436992194674	1028.395327491725	407.915519956643	599.897691541752	958.522539108158	303.022026516979	660.918190854362	1002.149267002054	209.221014281198	596.871562509360	870.663419408383	42.883805834396	570.047254596041	1043.050147133232	98.239750887389	601.052963511054	955.647950748410	37.063182959678	642.072401923481	1163.676398552830	44.515521071545	625.973033789523	637.806617567582	203.779797982274	397.993466095271	682.693216777515	132.233592756193	330.565246935254	787.096755946052	124.971297164306	348.864906354068	845.380496421741	28.757747256121	349.921321971587	917.463796335482	1064.668848861619	204.013637602497	1124.274654798426	907.122665908272	229.547473491656	879.071297847570	1131.350981438962	789.413057159582	975.170749406122	886.641480312730	784.674516954954	
93	34.530571428571	783.070907085996	1004.668388715081	521.275956950765	949.158944056711	1417.886120457593	305.641049420627	1050.461888761778	1366.668640022452	475.597607674143	959.521458729084	1455.630587174881	638.879985778949	946.848568389728	1493.480885131780	455.106604613934	1007.901562847967	948.744779145987	645.082888983821	999.379716114811	958.419789195287	370.714343136299	1053.697222239112	745.483466889065	617.576700138768	969.278139080686	633.996353760450	671.860186584363	1048.990513629900	583.817837129702	592.936441609823	1048.917331182233	495.782015059959	594.774214495501	1056.601451361844	754.857614839495	389.844578154134	984.909530200894	637.150354667527	313.803091859521	1076.760860070238	555.708617562431	371.691071003114	1073.426673673053	468.414023320290	363.927599702266	1000.754163510368	411.723476312164	356.322712260064	857.430664283648	380.101933945692	307.930574215405	835.315885399302	250.492348584114	358.191579606819	1023.355849583672	406.967913955028	600.677461660301	952.883622865156	302.485518098023	661.724302351145	995.233604089514	208.550633296413	597.083270517807	862.146898404366	42.833227573044	570.204083339993	1034.610157793859	97.999046259922	601.035062863528	947.149732891636	36.981224273267	642.207626938387	1155.280148236417	44.109435776917	626.045558637787	644.838394363864	220.312286817749	393.267896843645	685.962385442528	145.173452349082	326.873008462268	789.448289469637	130.384733430630	346.780672681686	839.115899260992	26.940102206846	349.176900599445	911.297526617048	1063.711150217056	208.467311164393	1107.300507563065	892.189948215424	232.239113012803	887.421601773133	1128.533605636393	792.752874118947	1001.117144823804	891.962717165252	782.553269073950	
